<svg xmlns="http://www.w3.org/2000/svg" version="1.1" xmlns:xlink="http://www.w3.org/1999/xlink" xmlns:svgjs="http://svgjs.dev/svgjs" width="1000" height="1000" viewBox="0 0 1000 1000"><rect width="1000" height="1000" fill="#ffffff"></rect><g transform="matrix(0.7,0,0,0.7,149.57575757575756,282.1265587044535)"><svg viewBox="0 0 396 247" data-background-color="#ffffff" preserveAspectRatio="xMidYMid meet" height="623" width="1000" xmlns="http://www.w3.org/2000/svg" xmlns:xlink="http://www.w3.org/1999/xlink"><defs></defs><g id="tight-bounds" transform="matrix(1,0,0,1,0.2400000000000091,-0.09999999999999432)"><svg viewBox="0 0 395.52 247.2" height="247.2" width="395.52"><g><svg></svg></g><g><svg viewBox="0 0 395.52 247.2" height="247.2" width="395.52"><g transform="matrix(5.2475845838615225, 0, 0, 5.2475845838615225, 1, 8.35777261378874)"><svg xmlns="http://www.w3.org/2000/svg" xmlns:xlink="http://www.w3.org/1999/xlink" version="1.1" x="0" y="0" viewBox="12.143415451049805 28.462993621826172 74.99069213867188 43.9220085144043" enable-background="new 0 0 100 100" xml:space="preserve" height="43.9220085144043" width="74.99069213867188" class="icon-none" data-fill-palette-color="accent" id="none"><g fill="#00ffef" data-fill-palette-color="accent"><path d="M87.094 61.341l-2.333-6.668c-0.13-0.369-0.535-0.565-0.905-0.435-0.057 0.02-0.107 0.047-0.155 0.079-0.536-0.993-1.138-1.856-1.774-2.624l-0.013-2.622c-0.003-0.453-0.37-0.819-0.823-0.819-0.398 0-1.844 0-3.079 0-0.027-0.019-0.056-0.038-0.083-0.056-1.627-1.062-3.18-1.813-4.316-2.542-1.154-0.739-1.781-1.381-1.971-2.155-0.049-0.198-0.156-0.366-0.299-0.496 1.539-0.686-0.699-5.693-1.604-5.036-0.773 0.562-4.074 0.601-7.652 0.604-0.104-0.267-0.361-0.457-0.662-0.457-0.303 0-0.561 0.191-0.663 0.458-4.505 0.002-9.017 0.04-9.187 1.062-0.154 0.923-0.072 2.843 0.523 3.607-0.131 0.224-0.176 0.489-0.112 0.744l0.333 1.334c0.08 0.317 0.312 0.578 0.619 0.693 3.154 1.19 4.58 3.822 4.842 6.506 0.009 0.105 0.014 0.217 0.014 0.329 0.014 1.422-0.861 3.136-2.115 4.432-1.236 1.312-2.847 2.14-3.838 2.112-3.22 0-7.399-0.011-10.919-0.022-0.02-0.04-0.031-0.083-0.059-0.12l-1.625-2.106c-0.24-0.312-0.686-0.368-0.997-0.129-0.311 0.24-0.368 0.687-0.129 0.997l0.365 0.475c-0.407 0.236-0.733 0.537-0.992 0.871-0.091 0-0.185 0-0.273-0.001-1.221-0.163-1.913-0.613-2.399-1.242-0.558-0.731-0.846-1.871-0.844-3.311-0.021-4.344 2.608-10.795 3.899-14.394v-0.001c0.125-0.352 0.175-0.698 0.174-1.006-0.028-0.857-0.266-1.346-0.235-1.572 0-0.047 0.004-0.087 0.013-0.128 0.082-0.423 0.359-1.138 0.638-1.757 0.094-0.068 0.176-0.14 0.228-0.204 0.239-0.301 0.389-0.596 0.583-0.926 0.853 0.382 1.941 0.719 3.344 0.917 0.05 0.008 0.099 0.011 0.148 0.011 0.487 0 0.914-0.355 0.988-0.852 0.081-0.548-0.295-1.055-0.841-1.137h-0.001c-1.184-0.177-2.059-0.441-2.715-0.72 0.018-0.125 0.038-0.25 0.038-0.373 0.001-0.775-0.35-1.44-0.801-1.95-0.685-0.77-1.617-1.294-2.49-1.666-0.889-0.365-1.65-0.57-2.245-0.582-0.117 0.001-0.233 0.005-0.398 0.053-0.144 0.045-0.455 0.163-0.608 0.574-0.067 0.194-0.525 1.215-0.528 2.378 0 0.454 0.07 0.95 0.296 1.433 0.12 0.257 0.366 0.435 0.649 0.466 1.403 0.175 1.829 0.621 2.104 1.016 0.079 0.12 0.138 0.245 0.19 0.372-1.257 1.724-2.187 3.76-3.132 5.595-1.19 2.375-2.436 4.312-3.862 4.891-0.102 0.045-0.197 0.093-0.291 0.144-1.036 0.108-1.727 0.33-1.761 0.339-0.153 0.05-0.283 0.146-0.375 0.279l-2.644 3.841c0 0 0 0.001-0.001 0.001-0.169 0.232-0.154 0.463-0.133 0.565 0.096 0.338 0.139 0.282 0.159 0.338 0.023 0.025 0.033 0.036 0.041 0.045 0.143 0.142 0.34 0.219 0.54 0.211 0.094 0.001 0.415 0.011 0.817 0.071 0.478 0.067 1.053 0.224 1.373 0.441 0.044 0.028 0.091 0.046 0.139 0.064-0.102 0.197-0.205 0.398-0.308 0.6-1.397-0.69-2.965-1.088-4.629-1.089-4.892 0.003-8.999 3.347-10.158 7.881-0.073 0.285-0.014 0.586 0.163 0.82 0.177 0.237 0.447 0.379 0.742 0.391 0.001 0 0.236 0.009 0.617 0.021-0.487 1.081-0.764 2.277-0.764 3.54 0.001 4.771 3.866 8.639 8.64 8.64 3.587-0.001 6.66-2.185 7.967-5.296 0.246 0.161 0.4 0.257 0.408 0.264 0.156 0.096 0.333 0.146 0.513 0.146 0.075 0 0.15-0.009 0.225-0.026 0.252-0.062 0.468-0.219 0.603-0.439 0.947-1.552 1.5-3.374 1.524-5.315 0.06 0.002 0.121 0.004 0.18 0.007 0.14 0.406 0.38 0.848 0.774 1.26 0.783 0.823 2.073 1.47 4.109 1.749l0.093 0.01c0.005 0 6.032 0.261 12.251 0.416 0.055 0.098 0.14 0.175 0.25 0.203l8.205 2.048c0.033 0.008 0.066 0.013 0.1 0.013 0.179 0 0.342-0.117 0.396-0.296 0.063-0.211-0.053-0.435-0.261-0.507l-3.947-1.369c0.967 0.012 1.9 0.02 2.771 0.02 0.483-0.001 0.94-0.004 1.381-0.008-0.442-1.309-1.219-3.977-1.223-6.65 0-1.538 0.257-3.092 1.039-4.385 0.778-1.296 2.111-2.289 4.074-2.643 2.051-0.376 3.902-0.558 5.583-0.559 5.085-0.008 8.623 1.689 11.21 4.548 2.457 2.705 4.102 5.391 4.824 6.67 0.412-0.143 0.645-0.259 0.685-0.28 0.161-0.084 0.284-0.214 0.376-0.362l0.074 0.211c0.102 0.293 0.377 0.476 0.672 0.476 0.077 0 0.156-0.013 0.234-0.039C87.027 62.116 87.224 61.711 87.094 61.341zM23.621 62.026c0.305 0.227 0.59 0.475 0.859 0.737l-0.049 0.09h-0.947c-0.048-0.094-0.097-0.187-0.158-0.271L23.621 62.026zM21.567 68.884c-2.839-0.005-5.135-2.302-5.14-5.14 0.002-1.32 0.505-2.52 1.323-3.43 0.494 0.008 0.964 0.014 1.375 0.014 0.83-0.011 1.833 0.252 2.821 0.709l-0.338 0.637c-0.013 0-0.025-0.004-0.039-0.004-1.19 0-2.156 0.965-2.156 2.155s0.966 2.155 2.156 2.155c0.839 0 1.56-0.485 1.916-1.186h1.522c0.356 0 0.681-0.193 0.852-0.506l0.029-0.054c0.226 0.217 0.457 0.429 0.69 0.631C26.063 67.163 24.019 68.88 21.567 68.884z" fill="#00ffef" data-fill-palette-color="accent"></path><path d="M82.834 61.219c-0.863-1.357-2.139-3.168-3.781-4.975-2.428-2.657-5.597-4.21-10.47-4.219-1.609 0-3.4 0.174-5.403 0.542-1.73 0.324-2.749 1.115-3.398 2.176-0.646 1.063-0.896 2.438-0.895 3.867-0.001 1.729 0.361 3.519 0.726 4.867 0.206 0.764 0.409 1.374 0.548 1.768 1.213-0.026 2.197-0.077 2.878-0.167 0.644 4.136 4.208 7.305 8.526 7.307 4.406-0.002 8.032-3.301 8.564-7.562 0.486-0.339 0.943-0.725 1.304-1.117 0.012-0.001 0.024-0.002 0.036-0.004 0.498-0.076 0.713-0.317 0.868-0.468 0.202-0.219 0.325-0.412 0.419-0.542 0.322-0.05 0.607-0.108 0.869-0.17C83.421 62.167 83.157 61.726 82.834 61.219zM71.564 68.884c-2.459-0.004-4.508-1.729-5.017-4.034 0.331-0.021 0.681-0.042 1.043-0.064 0.238 1.364 1.505 2.315 2.896 2.135l5.594-0.726C75.209 67.795 73.514 68.881 71.564 68.884z" fill="#00ffef" data-fill-palette-color="accent"></path></g></svg></g><rect width="348.05760000000004" height="116.8144172285815" fill="#ffffff" y="65.19279138570924" x="23.731199999999973" data-fill-palette-color="quaternary"></rect><g transform="matrix(1,0,0,1,39.55199999999999,79.04074684459647)"><svg viewBox="0 0 316.416 89.11850631080706" height="89.11850631080706" width="316.416"><g><svg viewBox="0 0 316.416 89.11850631080706" height="89.11850631080706" width="316.416"><g><svg viewBox="0 0 316.416 89.11850631080706" height="89.11850631080706" width="316.416"><g><svg viewBox="0 0 316.416 89.11850631080706" height="89.11850631080706" width="316.416"><g><svg viewBox="0 0 316.416 58.65888721804511" height="58.65888721804511" width="316.416"><g transform="matrix(1,0,0,1,0,0)"><svg width="316.416" viewBox="2.5 -38.599998474121094 212.7899932861328 39.44999694824219" height="58.65888721804511" data-palette-color="#4f01ff"><g class="undefined-text-0" data-fill-palette-color="primary" id="text-0"><path d="M48.65-37.9L57.4-37.9 48.15 0.45 36.75 0.45 29.95-25.3 23.2 0.45 11.8 0.45 2.5-37.9 11.25-37.9 17.6-10 24.7-37.9 35.2-37.9 42.35-10 48.65-37.9ZM81.15 0.85Q74.85 0.85 70.45-1.73 66.05-4.3 63.85-8.78 61.65-13.25 61.65-18.9L61.65-18.9Q61.65-24.45 63.85-28.9 66.05-33.35 70.45-35.98 74.85-38.6 81.15-38.6L81.15-38.6Q87.35-38.6 91.75-35.98 96.15-33.35 98.37-28.88 100.6-24.4 100.6-18.9L100.6-18.9Q100.6-13.25 98.37-8.78 96.15-4.3 91.77-1.73 87.4 0.85 81.15 0.85L81.15 0.85ZM81.15-6.75Q86-6.75 88.7-10.15 91.4-13.55 91.4-19.05L91.4-19.05Q91.4-22.5 90.2-25.2 89-27.9 86.67-29.45 84.35-31 81.15-31L81.15-31Q76.2-31 73.52-27.65 70.85-24.3 70.85-18.9L70.85-18.9Q70.85-13.4 73.5-10.08 76.15-6.75 81.15-6.75L81.15-6.75ZM123.6 0.85Q117.3 0.85 112.9-1.73 108.5-4.3 106.3-8.78 104.1-13.25 104.1-18.9L104.1-18.9Q104.1-24.45 106.3-28.9 108.5-33.35 112.9-35.98 117.3-38.6 123.6-38.6L123.6-38.6Q129.8-38.6 134.2-35.98 138.6-33.35 140.82-28.88 143.05-24.4 143.05-18.9L143.05-18.9Q143.05-13.25 140.82-8.78 138.6-4.3 134.22-1.73 129.85 0.85 123.6 0.85L123.6 0.85ZM123.6-6.75Q128.45-6.75 131.15-10.15 133.85-13.55 133.85-19.05L133.85-19.05Q133.85-22.5 132.65-25.2 131.45-27.9 129.12-29.45 126.8-31 123.6-31L123.6-31Q118.65-31 115.97-27.65 113.3-24.3 113.3-18.9L113.3-18.9Q113.3-13.4 115.95-10.08 118.6-6.75 123.6-6.75L123.6-6.75ZM161.54 0.85Q157.54 0.85 154.14 0.18 150.74-0.5 147.59-2L147.59-2 147.59-10.1Q153.94-6.75 161.54-6.75L161.54-6.75Q164.49-6.75 165.87-7.75 167.24-8.75 167.24-10.4L167.24-10.4Q167.24-12.05 166.02-12.88 164.79-13.7 161.64-14.55L161.64-14.55 158.24-15.5Q155.24-16.35 153.04-17.48 150.84-18.6 149.29-20.85 147.74-23.1 147.74-26.65L147.74-26.65Q147.74-32.5 151.32-35.55 154.89-38.6 161.39-38.6L161.39-38.6Q165.29-38.6 168.24-37.9 171.19-37.2 174.29-35.75L174.29-35.75 174.29-27.95Q168.59-31 161.39-31L161.39-31Q158.74-31 157.69-30.1 156.64-29.2 156.64-27.5L156.64-27.5Q156.64-26.35 157.14-25.68 157.64-25 158.69-24.55 159.74-24.1 161.84-23.5L161.84-23.5 165.29-22.55Q168.49-21.65 170.79-20.45 173.09-19.25 174.62-16.9 176.14-14.55 176.14-10.85L176.14-10.85Q176.09-5.4 172.22-2.27 168.34 0.85 161.54 0.85L161.54 0.85ZM206.29-37.9L215.29-37.9 215.29 0 206.29 0 206.29-15.2 191.34-15.2 191.34 0 182.34 0 182.34-37.9 191.34-37.9 191.34-22.9 206.29-22.9 206.29-37.9Z" fill="#4f01ff" data-fill-palette-color="primary"></path></g></svg></g></svg></g><g transform="matrix(1,0,0,1,0,72.50684267693232)"><svg viewBox="0 0 185.7678336 16.611663633874738" height="16.611663633874738" width="185.7678336"><g transform="matrix(1,0,0,1,0,0)"><svg width="185.7678336" viewBox="0.6800000071525574 -35.790000915527344 407.32000732421875 36.42000198364258" height="16.611663633874738" data-palette-color="#77d4fc"><path d="M26.27-12.5L26.27-12.5Q26.27-9.16 25.11-6.73 23.95-4.3 21.94-2.72 19.92-1.15 17.22-0.4 14.53 0.34 11.43 0.34L11.43 0.34Q10.23 0.34 8.8 0.02 7.37-0.29 5.91-0.77 4.44-1.25 3.09-1.79 1.73-2.34 0.68-2.83L0.68-2.83 1.76-12.4Q3.83-11.16 6.36-10.51 8.89-9.86 11.33-9.86L11.33-9.86Q11.79-9.86 12.45-9.9 13.11-9.94 13.71-10.12 14.31-10.3 14.72-10.67 15.14-11.04 15.14-11.72L15.14-11.72Q15.14-12.18 14.84-12.51 14.55-12.84 14.09-13.05 13.62-13.26 13.04-13.37 12.45-13.48 11.89-13.53 11.33-13.57 10.84-13.57 10.35-13.57 10.06-13.57L10.06-13.57Q7.96-13.57 6.24-14.23 4.52-14.89 3.28-16.1 2.05-17.31 1.37-19.03 0.68-20.75 0.68-22.85L0.68-22.85Q0.68-25.73 1.84-28.02 3-30.3 4.94-31.9 6.88-33.5 9.4-34.35 11.91-35.21 14.6-35.21L14.6-35.21Q15.8-35.21 17.07-35.12 18.33-35.03 19.59-34.81 20.85-34.59 22.05-34.25 23.24-33.91 24.32-33.4L24.32-33.4 23.39-23.49Q21.73-24.05 19.91-24.43 18.09-24.8 16.36-24.8L16.36-24.8Q16.04-24.8 15.54-24.79 15.04-24.78 14.49-24.72 13.94-24.66 13.38-24.54 12.82-24.41 12.38-24.21 11.94-24 11.67-23.66 11.4-23.32 11.43-22.85L11.43-22.85Q11.45-22.31 11.83-22.02 12.21-21.73 12.81-21.59 13.4-21.46 14.12-21.46 14.84-21.46 15.55-21.5 16.26-21.53 16.87-21.57 17.48-21.61 17.87-21.58L17.87-21.58Q19.82-21.46 21.39-20.75 22.95-20.04 24.04-18.87 25.12-17.7 25.7-16.08 26.27-14.45 26.27-12.5ZM51.12-33.35L51.12-33.35 50.24-23.05Q49.53-23.24 48.85-23.32 48.17-23.39 47.46-23.39L47.46-23.39Q45.73-23.39 44.15-22.95 42.58-22.51 41.37-21.61 40.16-20.7 39.44-19.32 38.72-17.94 38.72-16.06L38.72-16.06Q38.72-14.7 39.12-13.68 39.52-12.67 40.27-12 41.01-11.33 42.08-10.99 43.14-10.64 44.43-10.64L44.43-10.64Q45.33-10.64 46.29-10.83 47.24-11.01 48.19-11.33 49.14-11.65 50.02-12.06 50.9-12.48 51.66-12.94L51.66-12.94 51.27-1.46Q50.31-0.98 49.22-0.6 48.12-0.22 46.96 0.06 45.8 0.34 44.64 0.49 43.48 0.63 42.43 0.63L42.43 0.63Q38.96 0.63 36.12-0.66 33.27-1.95 31.24-4.19 29.2-6.42 28.07-9.38 26.95-12.33 26.95-15.67L26.95-15.67Q26.95-19.68 28.09-23.14 29.22-26.61 31.43-29.16 33.64-31.71 36.9-33.17 40.16-34.62 44.38-34.62L44.38-34.62Q46.07-34.62 47.8-34.35 49.53-34.08 51.12-33.35ZM83.22-18.7L83.22-18.7Q83.22-16.48 82.71-14.42 82.2-12.35 81.23-10.55 80.27-8.74 78.89-7.24 77.51-5.74 75.79-4.66 74.07-3.59 72.04-2.99 70.01-2.39 67.74-2.39L67.74-2.39Q65.55-2.39 63.56-2.95 61.57-3.52 59.83-4.53 58.1-5.54 56.7-6.97 55.29-8.4 54.3-10.14 53.32-11.89 52.77-13.89 52.22-15.89 52.22-18.07L52.22-18.07Q52.22-20.19 52.73-22.23 53.24-24.27 54.21-26.07 55.17-27.88 56.54-29.39 57.91-30.91 59.6-32.01 61.3-33.11 63.28-33.72 65.25-34.33 67.45-34.33L67.45-34.33Q70.99-34.33 73.91-33.23 76.83-32.13 78.89-30.09 80.95-28.05 82.09-25.16 83.22-22.27 83.22-18.7ZM72.38-18.07L72.38-18.07Q72.38-19.12 72.08-20.1 71.77-21.09 71.19-21.86 70.6-22.63 69.73-23.11 68.87-23.58 67.74-23.58L67.74-23.58Q66.6-23.58 65.69-23.17 64.79-22.75 64.14-22.03 63.5-21.31 63.15-20.35 62.81-19.38 62.81-18.31L62.81-18.31Q62.81-17.29 63.11-16.26 63.4-15.23 63.98-14.4 64.57-13.57 65.44-13.06 66.3-12.55 67.45-12.55L67.45-12.55Q68.6-12.55 69.51-13 70.43-13.45 71.06-14.22 71.7-14.99 72.04-15.99 72.38-16.99 72.38-18.07ZM115.1-18.7L115.1-18.7Q115.1-16.48 114.59-14.42 114.08-12.35 113.12-10.55 112.15-8.74 110.77-7.24 109.39-5.74 107.67-4.66 105.95-3.59 103.92-2.99 101.9-2.39 99.63-2.39L99.63-2.39Q97.43-2.39 95.44-2.95 93.45-3.52 91.72-4.53 89.98-5.54 88.58-6.97 87.18-8.4 86.19-10.14 85.2-11.89 84.65-13.89 84.1-15.89 84.1-18.07L84.1-18.07Q84.1-20.19 84.61-22.23 85.12-24.27 86.09-26.07 87.05-27.88 88.42-29.39 89.79-30.91 91.48-32.01 93.18-33.11 95.16-33.72 97.14-34.33 99.33-34.33L99.33-34.33Q102.87-34.33 105.79-33.23 108.71-32.13 110.77-30.09 112.83-28.05 113.97-25.16 115.1-22.27 115.1-18.7ZM104.26-18.07L104.26-18.07Q104.26-19.12 103.96-20.1 103.65-21.09 103.07-21.86 102.48-22.63 101.62-23.11 100.75-23.58 99.63-23.58L99.63-23.58Q98.48-23.58 97.58-23.17 96.67-22.75 96.03-22.03 95.38-21.31 95.04-20.35 94.69-19.38 94.69-18.31L94.69-18.31Q94.69-17.29 94.99-16.26 95.28-15.23 95.87-14.4 96.45-13.57 97.32-13.06 98.19-12.55 99.33-12.55L99.33-12.55Q100.48-12.55 101.4-13 102.31-13.45 102.95-14.22 103.58-14.99 103.92-15.99 104.26-16.99 104.26-18.07ZM116.05-34.38L142.67-34.42 142.42-24.07 135.15-23.78 134.27-1.12 123.96-0.59 123.04-23.24 115.76-22.85 116.05-34.38ZM170.81-19.73L170.81-19.73Q170.81-17.6 170.52-15.48L170.52-15.48Q166.34-15.21 162.22-14.61 158.09-14.01 153.97-13.43L153.97-13.43Q154.6-11.67 155.96-10.62 157.31-9.57 159.19-9.57L159.19-9.57Q160.17-9.57 161.33-9.94 162.49-10.3 163.63-10.85 164.78-11.4 165.83-12.04 166.88-12.67 167.64-13.18L167.64-13.18 166.47-2.1Q165.51-1.37 164.4-0.85 163.29-0.34 162.1-0.02 160.9 0.29 159.68 0.44 158.46 0.59 157.29 0.59L157.29 0.59Q154.87 0.59 152.87-0.07 150.87-0.73 149.24-1.92 147.62-3.1 146.4-4.71 145.18-6.32 144.37-8.23 143.57-10.13 143.15-12.26 142.74-14.38 142.74-16.55L142.74-16.55Q142.74-18.82 143.15-21.09 143.57-23.36 144.41-25.46 145.25-27.56 146.53-29.36 147.81-31.15 149.52-32.5 151.23-33.84 153.39-34.59 155.55-35.35 158.17-35.35L158.17-35.35Q160.34-35.35 162.13-34.75 163.93-34.16 165.33-33.09 166.74-32.03 167.77-30.57 168.81-29.1 169.48-27.36 170.15-25.61 170.48-23.67 170.81-21.73 170.81-19.73ZM161.05-20.46L161.05-21Q161.05-21.68 160.9-22.4 160.75-23.12 160.42-23.71 160.09-24.29 159.56-24.67 159.02-25.05 158.22-25.05L158.22-25.05Q157.24-25.05 156.49-24.52 155.75-24 155.21-23.21 154.68-22.41 154.33-21.48 153.99-20.56 153.82-19.78L153.82-19.78 161.05-20.46ZM201.01-23.54L201.01-23.54Q201.01-21.63 200.68-20.08 200.35-18.53 199.64-17.24 198.94-15.94 197.81-14.84 196.69-13.75 195.1-12.74L195.1-12.74 200.91-2.39 189.93-0.24 186.17-10.64 183.14-10.55 182.7-0.39 172.2-0.39Q172.32-5.96 172.43-11.47 172.54-16.99 172.69-22.56L172.69-22.56Q172.74-25.37 172.79-28.13 172.84-30.88 172.98-33.69L172.98-33.69Q174.69-34.33 176.35-34.74 178.01-35.16 179.68-35.39 181.36-35.62 183.08-35.71 184.8-35.79 186.61-35.79L186.61-35.79Q189.39-35.79 191.99-35.02 194.59-34.25 196.59-32.71 198.59-31.18 199.8-28.88 201.01-26.59 201.01-23.54ZM190.07-22.75L190.07-22.75Q190.07-23.78 189.79-24.63 189.51-25.49 188.96-26.11 188.41-26.73 187.59-27.09 186.78-27.44 185.68-27.44L185.68-27.44Q185.19-27.44 184.73-27.38 184.26-27.32 183.82-27.2L183.82-27.2 183.43-18.12 184.02-18.12Q185.07-18.12 186.15-18.38 187.24-18.65 188.11-19.21 188.97-19.78 189.52-20.65 190.07-21.53 190.07-22.75ZM241.07-23.54L241.07-23.54Q241.07-21.63 240.74-20.08 240.41-18.53 239.7-17.24 238.99-15.94 237.87-14.84 236.75-13.75 235.16-12.74L235.16-12.74 240.97-2.39 229.98-0.24 226.23-10.64 223.2-10.55 222.76-0.39 212.26-0.39Q212.38-5.96 212.49-11.47 212.6-16.99 212.75-22.56L212.75-22.56Q212.8-25.37 212.85-28.13 212.9-30.88 213.04-33.69L213.04-33.69Q214.75-34.33 216.41-34.74 218.07-35.16 219.74-35.39 221.42-35.62 223.14-35.71 224.86-35.79 226.66-35.79L226.66-35.79Q229.45-35.79 232.05-35.02 234.65-34.25 236.65-32.71 238.65-31.18 239.86-28.88 241.07-26.59 241.07-23.54ZM230.13-22.75L230.13-22.75Q230.13-23.78 229.85-24.63 229.57-25.49 229.02-26.11 228.47-26.73 227.65-27.09 226.84-27.44 225.74-27.44L225.74-27.44Q225.25-27.44 224.78-27.38 224.32-27.32 223.88-27.2L223.88-27.2 223.49-18.12 224.08-18.12Q225.13-18.12 226.21-18.38 227.3-18.65 228.17-19.21 229.03-19.78 229.58-20.65 230.13-21.53 230.13-22.75ZM269.75-19.73L269.75-19.73Q269.75-17.6 269.46-15.48L269.46-15.48Q265.29-15.21 261.16-14.61 257.03-14.01 252.91-13.43L252.91-13.43Q253.54-11.67 254.9-10.62 256.25-9.57 258.13-9.57L258.13-9.57Q259.11-9.57 260.27-9.94 261.43-10.3 262.58-10.85 263.72-11.4 264.77-12.04 265.82-12.67 266.58-13.18L266.58-13.18 265.41-2.1Q264.46-1.37 263.34-0.85 262.23-0.34 261.04-0.02 259.84 0.29 258.62 0.44 257.4 0.59 256.23 0.59L256.23 0.59Q253.81 0.59 251.81-0.07 249.81-0.73 248.18-1.92 246.56-3.1 245.34-4.71 244.12-6.32 243.31-8.23 242.51-10.13 242.09-12.26 241.68-14.38 241.68-16.55L241.68-16.55Q241.68-18.82 242.09-21.09 242.51-23.36 243.35-25.46 244.19-27.56 245.47-29.36 246.75-31.15 248.46-32.5 250.17-33.84 252.33-34.59 254.49-35.35 257.11-35.35L257.11-35.35Q259.28-35.35 261.07-34.75 262.87-34.16 264.27-33.09 265.68-32.03 266.71-30.57 267.75-29.1 268.42-27.36 269.09-25.61 269.42-23.67 269.75-21.73 269.75-19.73ZM259.99-20.46L259.99-21Q259.99-21.68 259.84-22.4 259.69-23.12 259.36-23.71 259.04-24.29 258.5-24.67 257.96-25.05 257.16-25.05L257.16-25.05Q256.18-25.05 255.43-24.52 254.69-24 254.15-23.21 253.62-22.41 253.27-21.48 252.93-20.56 252.76-19.78L252.76-19.78 259.99-20.46ZM301.64-12.35L301.64-12.35Q301.64-9.59 301.57-6.9 301.51-4.2 301.39-1.46L301.39-1.46 287.33-1.71Q288.06-6.03 288.6-10.34 289.14-14.65 289.14-19.04L289.14-19.04Q289.14-19.36 289.11-20.07 289.09-20.78 289.01-21.67 288.94-22.56 288.81-23.5 288.67-24.44 288.44-25.22 288.21-26 287.88-26.5 287.55-27 287.08-27L287.08-27Q286.25-27 285.68-26.51 285.11-26.03 284.73-25.26 284.35-24.49 284.13-23.54 283.91-22.58 283.8-21.63 283.69-20.68 283.65-19.84 283.62-18.99 283.62-18.46L283.62-18.46Q283.5-14.14 283.42-9.88 283.35-5.62 283.23-1.27L283.23-1.27 270.78-0.73Q271.26-9.35 271.72-17.87 272.17-26.39 272.44-35.01L272.44-35.01 283.96-35.6 283.86-31.69Q284.55-32.52 285.34-33.25 286.13-33.98 287.04-34.51 287.94-35.03 288.95-35.34 289.97-35.64 291.09-35.64L291.09-35.64Q293.16-35.64 294.73-34.96 296.29-34.28 297.41-33.11 298.53-31.93 299.29-30.33 300.05-28.74 300.51-26.93 300.98-25.12 301.22-23.16 301.46-21.19 301.55-19.29 301.64-17.38 301.64-15.6 301.64-13.82 301.64-12.35ZM303.17-34.38L329.78-34.42 329.54-24.07 322.26-23.78 321.38-1.12 311.08-0.59 310.15-23.24 302.88-22.85 303.17-34.38ZM330.93-33.69L343.92-34.38 342.21-1.12 331.9-0.59 330.93-33.69ZM376.19-12.35L376.19-12.35Q376.19-9.59 376.13-6.9 376.07-4.2 375.94-1.46L375.94-1.46 361.88-1.71Q362.61-6.03 363.15-10.34 363.69-14.65 363.69-19.04L363.69-19.04Q363.69-19.36 363.66-20.07 363.64-20.78 363.57-21.67 363.49-22.56 363.36-23.5 363.22-24.44 362.99-25.22 362.76-26 362.43-26.5 362.1-27 361.64-27L361.64-27Q360.81-27 360.23-26.51 359.66-26.03 359.28-25.26 358.9-24.49 358.68-23.54 358.46-22.58 358.35-21.63 358.24-20.68 358.21-19.84 358.17-18.99 358.17-18.46L358.17-18.46Q358.05-14.14 357.98-9.88 357.9-5.62 357.78-1.27L357.78-1.27 345.33-0.73Q345.82-9.35 346.27-17.87 346.72-26.39 346.99-35.01L346.99-35.01 358.51-35.6 358.41-31.69Q359.1-32.52 359.89-33.25 360.69-33.98 361.59-34.51 362.49-35.03 363.51-35.34 364.52-35.64 365.64-35.64L365.64-35.64Q367.72-35.64 369.28-34.96 370.84-34.28 371.96-33.11 373.09-31.93 373.84-30.33 374.6-28.74 375.07-26.93 375.53-25.12 375.77-23.16 376.02-21.19 376.1-19.29 376.19-17.38 376.19-15.6 376.19-13.82 376.19-12.35ZM407.7-21.39L408-5.47Q406.85-4.03 405.17-2.95 403.48-1.88 401.55-1.17 399.62-0.46 397.6-0.11 395.57 0.24 393.74 0.24L393.74 0.24Q390.2 0.24 387.22-0.95 384.24-2.15 382.08-4.28 379.92-6.42 378.7-9.38 377.48-12.33 377.48-15.82L377.48-15.82Q377.48-18.48 378.09-21 378.7-23.51 379.84-25.71 380.97-27.91 382.61-29.74 384.24-31.57 386.32-32.89 388.39-34.2 390.87-34.92 393.35-35.64 396.13-35.64L396.13-35.64Q397.18-35.64 398.38-35.56 399.57-35.47 400.76-35.27 401.94-35.06 403.07-34.69 404.19-34.33 405.12-33.79L405.12-33.79 404.43-24.46Q403.07-24.98 401.61-25.16 400.16-25.34 398.77-25.34L398.77-25.34Q396.82-25.34 395.12-24.82 393.42-24.29 392.16-23.27 390.91-22.24 390.17-20.7 389.44-19.17 389.44-17.14L389.44-17.14Q389.44-15.87 389.78-14.69 390.13-13.5 390.82-12.59 391.52-11.67 392.56-11.11 393.59-10.55 394.96-10.55L394.96-10.55Q395.89-10.55 396.88-10.79 397.87-11.04 398.57-11.62L398.57-11.62 398.67-13.53 392.81-13.62 393.1-20.95Q396.74-21.07 400.38-21.15 404.02-21.24 407.7-21.39L407.7-21.39Z" opacity="1" transform="matrix(1,0,0,1,0,0)" fill="#77d4fc" class="undefined-text-1" data-fill-palette-color="secondary" id="text-1"></path></svg></g></svg></g></svg></g></svg></g></svg></g></svg></g></svg></g></svg><rect width="395.52" height="247.2" fill="none" stroke="none" visibility="hidden"></rect></g></svg></g></svg>